<svg width="178" height="667" viewBox="0 0 178 667" fill="none" xmlns="http://www.w3.org/2000/svg">
<path opacity="0.39" d="M121.909 390.096L121.909 390.596L121.909 390.096ZM121.865 390.096L121.865 389.596C121.733 389.596 121.606 389.648 121.512 389.742C121.418 389.836 121.365 389.963 121.365 390.096L121.865 390.096ZM121.865 481.386L121.865 481.886C122.142 481.886 122.365 481.662 122.365 481.386L121.865 481.386ZM74.8043 233.317L75.3043 233.317C75.3043 233.048 75.0908 232.827 74.8215 232.818L74.8043 233.317ZM74.8043 225.239L74.8217 225.738C75.0909 225.729 75.3043 225.508 75.3043 225.239L74.8043 225.239ZM74.8043 83.0047L75.3043 83.0047C75.3043 82.7352 75.0908 82.5143 74.8215 82.505L74.8043 83.0047ZM74.9529 74.9233L74.9529 74.4233L74.9529 74.9233ZM74.9529 83.0022L74.9529 82.5022L74.9529 83.0022ZM74.8043 82.9999L74.829 82.5005C74.6923 82.4937 74.5587 82.5433 74.4596 82.6377C74.3604 82.7321 74.3043 82.863 74.3043 82.9999L74.8043 82.9999ZM74.8043 225.243L74.3043 225.243C74.3043 225.376 74.3569 225.503 74.4507 225.597C74.5445 225.691 74.6717 225.743 74.8043 225.743L74.8043 225.243ZM74.9529 225.241L74.9529 224.741L74.9529 225.241ZM79.0961 229.281L78.5961 229.281V229.281L79.0961 229.281ZM79.0961 229.391L78.5961 229.391C78.5961 229.667 78.8199 229.891 79.0961 229.891L79.0961 229.391ZM121.867 229.391L122.367 229.391C122.367 229.258 122.314 229.131 122.22 229.037C122.126 228.944 121.999 228.891 121.867 228.891L121.867 229.391ZM121.866 382.015L121.366 382.015C121.366 382.147 121.419 382.274 121.513 382.368C121.607 382.462 121.734 382.515 121.866 382.515L121.866 382.015ZM121.91 382.015L121.91 382.515L121.91 382.015ZM19.7539 583.361L19.2539 583.361C19.2539 583.637 19.4777 583.861 19.7539 583.861L19.7539 583.361ZM19.7539 559.231L20.2539 559.231C20.2539 558.978 20.0644 558.765 19.8129 558.735L19.7539 559.231ZM19.7539 551.21L19.8132 551.707C20.0646 551.677 20.2539 551.463 20.2539 551.21L19.7539 551.21ZM19.7539 481.386L19.7539 480.886C19.4777 480.886 19.2539 481.11 19.2539 481.386L19.7539 481.386ZM74.3042 667C74.3042 667.276 74.5281 667.5 74.8042 667.5C75.0804 667.5 75.3042 667.276 75.3042 667L74.3042 667ZM75.3043 0.99993C75.3043 0.723788 75.0804 0.49993 74.8043 0.49993C74.5281 0.49993 74.3043 0.723788 74.3043 0.99993L75.3043 0.99993ZM90.6518 590.55L90.6518 591.05L91.1518 591.05L91.1518 590.55L90.6518 590.55ZM90.6519 401.716L91.1519 401.716L91.1519 401.216L90.6519 401.216L90.6519 401.716ZM-10.0001 401.716L-10.5001 401.716L-10.5001 402.216L-10.0001 402.216L-10.0001 401.716ZM-10.0001 200.228L-10.0001 199.728L-10.5001 199.728L-10.5001 200.228L-10.0001 200.228ZM41.7848 200.228L42.2848 200.228L42.2848 199.728L41.7848 199.728L41.7848 200.228ZM41.7848 424.794L41.2848 424.794L41.2848 425.294L41.7848 425.294L41.7848 424.794ZM177.447 424.794L177.947 424.794L177.947 424.294L177.447 424.294L177.447 424.794ZM177.447 536.041L177.447 536.541L177.947 536.541L177.947 536.041L177.447 536.041ZM62.9361 536.041L62.9361 535.541L62.4361 535.541L62.4361 536.041L62.9361 536.041ZM62.9361 621.421L62.4361 621.421L62.4361 621.921L62.9361 621.921L62.9361 621.421ZM121.909 389.596C121.902 389.596 121.894 389.596 121.887 389.596C121.88 389.596 121.873 389.596 121.865 389.596L121.865 390.596C121.873 390.596 121.88 390.596 121.887 390.596C121.894 390.596 121.902 390.596 121.909 390.596L121.909 389.596ZM121.365 390.096L121.365 481.386L122.365 481.386L122.365 390.096L121.365 390.096ZM121.865 480.886L74.8042 480.886L74.8042 481.886L121.865 481.886L121.865 480.886ZM75.3042 481.386L75.3043 233.317L74.3043 233.317L74.3042 481.386L75.3042 481.386ZM74.8215 232.818C72.8594 232.75 71.3097 231.181 71.3097 229.278L70.3097 229.278C70.3097 231.744 72.3109 233.732 74.7871 233.817L74.8215 232.818ZM71.3097 229.278C71.3097 227.375 72.8588 225.807 74.8217 225.738L74.7868 224.739C72.3104 224.825 70.3097 226.812 70.3097 229.278L71.3097 229.278ZM75.3043 225.239L75.3043 83.0047L74.3043 83.0047L74.3043 225.239L75.3043 225.239ZM74.8215 82.505C72.8595 82.4374 71.3097 80.8684 71.3097 78.9652L70.3097 78.9652C70.3097 81.4314 72.3109 83.4191 74.7871 83.5044L74.8215 82.505ZM71.3097 78.9652C71.3097 77.0622 72.8587 75.4943 74.8218 75.4254L74.7868 74.426C72.3105 74.5129 70.3097 76.4987 70.3097 78.9652L71.3097 78.9652ZM74.8043 75.4257C74.8359 75.4257 74.8666 75.4249 74.8904 75.4244C74.9161 75.4238 74.935 75.4233 74.9529 75.4233L74.9529 74.4233C74.921 74.4233 74.8902 74.4241 74.8664 74.4247C74.8405 74.4253 74.8218 74.4257 74.8043 74.4257L74.8043 75.4257ZM74.9529 75.4233C76.9774 75.4233 78.5961 77.0202 78.5961 78.9628L79.5961 78.9628C79.5961 76.4443 77.5058 74.4233 74.9529 74.4233L74.9529 75.4233ZM78.5961 78.9628C78.5961 80.9053 76.9769 82.5022 74.9529 82.5022L74.9529 83.5022C77.5052 83.5022 79.5961 81.4812 79.5961 78.9628L78.5961 78.9628ZM74.9529 82.5022C74.9005 82.5022 74.8636 82.5022 74.829 82.5005L74.7796 83.4993C74.8433 83.5024 74.9059 83.5022 74.9529 83.5022L74.9529 82.5022ZM74.3043 82.9999L74.3043 225.243L75.3043 225.243L75.3043 82.9999L74.3043 82.9999ZM74.8043 225.743C74.8361 225.743 74.8671 225.743 74.8908 225.742C74.9166 225.741 74.9353 225.741 74.9529 225.741L74.9529 224.741C74.9207 224.741 74.8897 224.742 74.8659 224.742C74.84 224.743 74.8216 224.743 74.8043 224.743L74.8043 225.743ZM74.9529 225.741C76.9774 225.741 78.5961 227.338 78.5961 229.281L79.5961 229.281C79.5961 226.762 77.5058 224.741 74.9529 224.741L74.9529 225.741ZM78.5961 229.281L78.5961 229.391L79.5961 229.391L79.5961 229.281L78.5961 229.281ZM79.0961 229.891L121.867 229.891L121.867 228.891L79.0961 228.891L79.0961 229.891ZM121.367 229.391L121.366 382.015L122.366 382.015L122.367 229.391L121.367 229.391ZM121.866 382.515C121.874 382.515 121.881 382.515 121.888 382.515C121.896 382.515 121.903 382.515 121.91 382.515L121.91 381.515C121.903 381.515 121.896 381.515 121.888 381.515C121.881 381.515 121.874 381.515 121.866 381.515L121.866 382.515ZM121.91 382.515C123.934 382.515 125.553 384.112 125.553 386.054L126.553 386.054C126.553 383.536 124.462 381.515 121.91 381.515L121.91 382.515ZM125.553 386.054C125.553 387.997 123.933 389.596 121.909 389.596L121.909 390.596C124.461 390.596 126.553 388.572 126.553 386.054L125.553 386.054ZM74.8042 582.861L19.7539 582.861L19.7539 583.861L74.8042 583.861L74.8042 582.861ZM20.2539 583.361L20.2539 559.231L19.2539 559.231L19.2539 583.361L20.2539 583.361ZM19.8129 558.735C18.0035 558.52 16.6195 557.019 16.6195 555.221L15.6195 555.221C15.6195 557.55 17.4074 559.456 19.6949 559.728L19.8129 558.735ZM16.6195 555.221C16.6195 553.423 18.0032 551.923 19.8132 551.707L19.6946 550.714C17.4077 550.987 15.6195 552.89 15.6195 555.221L16.6195 555.221ZM20.2539 551.21L20.2539 481.386L19.2539 481.386L19.2539 551.21L20.2539 551.21ZM19.7539 481.886L74.8042 481.886L74.8042 480.886L19.7539 480.886L19.7539 481.886ZM74.3042 481.386L74.3042 583.361L75.3042 583.361L75.3042 481.386L74.3042 481.386ZM74.3042 583.361L74.3042 667L75.3042 667L75.3042 583.361L74.3042 583.361ZM75.3043 74.9257L75.3043 0.99993L74.3043 0.99993L74.3043 74.9257L75.3043 74.9257ZM74.9535 591.05L90.6518 591.05L90.6518 590.05L74.9535 590.05L74.9535 591.05ZM91.1518 590.55L91.1519 401.716L90.1519 401.716L90.1518 590.55L91.1518 590.55ZM90.6519 401.216L-10.0001 401.216L-10.0001 402.216L90.6519 402.216L90.6519 401.216ZM-9.50013 401.716L-9.50011 200.228L-10.5001 200.228L-10.5001 401.716L-9.50013 401.716ZM-10.0001 200.728L41.7848 200.728L41.7848 199.728L-10.0001 199.728L-10.0001 200.728ZM41.2848 200.228L41.2848 424.794L42.2848 424.794L42.2848 200.228L41.2848 200.228ZM41.7848 425.294L177.447 425.294L177.447 424.294L41.7848 424.294L41.7848 425.294ZM176.947 424.794L176.947 536.041L177.947 536.041L177.947 424.794L176.947 424.794ZM177.447 535.541L62.9361 535.541L62.9361 536.541L177.447 536.541L177.447 535.541ZM62.4361 536.041L62.4361 621.421L63.4361 621.421L63.4361 536.041L62.4361 536.041ZM62.9361 621.921L154.834 621.921L154.834 620.921L62.9361 620.921L62.9361 621.921Z" fill="#707070"/>
</svg>
